<svg width="75" height="75" viewBox="0 0 75 75" fill="none" xmlns="http://www.w3.org/2000/svg">
<g clip-path="url(#clip0_73_7)">
<mask id="mask0_73_7" style="mask-type:luminance" maskUnits="userSpaceOnUse" x="21" y="15" width="33" height="46">
<path d="M53.9367 15H21.2212V61H53.9367V15Z" fill="white"/>
</mask>
<g mask="url(#mask0_73_7)">
<path d="M49.5631 42.017C51.7317 39.3165 53.1248 36.0714 53.5933 32.6321C54.5145 25.7936 51.7374 20.3808 45.7738 17.3908C43.9326 16.4676 41.9275 15.9713 40.0318 15.5423C35.1764 14.4436 30.7307 15.295 26.8173 18.072C23.6327 20.3322 21.883 23.0929 21.4683 26.5122C21.1556 29.117 21.325 31.7575 21.968 34.3002C23.2654 39.4909 25.5869 43.5705 29.0647 46.7716C29.1514 46.8515 29.2391 46.9309 29.3271 47.0102C29.7143 47.3391 30.071 47.7028 30.3931 48.0964C30.6879 48.4822 31.0275 48.9805 31.0357 49.4094C31.0656 51.02 30.9723 52.607 30.8671 54.0813C30.8019 54.9938 30.6974 55.921 30.5963 56.8177C30.5344 57.3657 30.4727 57.9137 30.4189 58.4634C30.2992 59.6835 30.7129 60.2939 31.8466 60.5702C32.5191 60.7384 33.2091 60.8255 33.9021 60.8301H33.9658C36.2618 60.8105 38.5943 60.7576 40.8514 60.7062L42.3571 60.6725C43.8185 60.6403 44.4074 60.105 44.5299 58.6971C44.7444 56.2315 44.8473 54.338 44.8631 52.5578L44.8654 52.3675C44.878 51.3115 44.8921 50.1201 43.9772 49.1015L45.6797 46.9421C46.9776 45.2953 48.2721 43.6538 49.5631 42.017ZM42.3838 48.8011L39.8344 48.6073C39.8309 48.5863 39.8303 48.5653 39.8326 48.5443C40.2083 47.0907 40.5878 45.6386 40.9711 44.1876C41.8238 40.9414 42.7052 37.5849 43.5056 34.2662C44.1233 31.7058 44.143 29.4368 43.5653 27.3299C43.2811 26.2933 42.7413 25.5276 42.0039 25.1156C41.6486 24.9283 41.2596 24.8154 40.8599 24.7836C40.4603 24.7519 40.0582 24.8019 39.6784 24.9308C39.3755 25.0322 39.0838 25.1646 38.8079 25.3258L38.6945 25.3867C38.516 25.4822 38.3504 25.5924 38.1751 25.7078L38.0786 25.7714C38.0305 25.7104 37.9835 25.6496 37.9366 25.5892C37.7653 25.3599 37.5823 25.1396 37.3885 24.9292C36.3581 23.8463 34.8755 23.7409 33.6983 24.6674C32.9016 25.3165 32.2978 26.1736 31.9528 27.1449C30.739 30.2779 30.6489 33.5446 31.685 36.854C32.2272 38.5859 32.8016 40.3388 33.3579 42.0337C33.5676 42.6732 33.7768 43.3129 33.9855 43.9527C34.4395 45.3882 34.7051 46.8768 34.7755 48.3816H32.8308C32.7224 46.9694 31.7898 46.012 30.8881 45.0846C30.7208 44.9132 30.5535 44.7413 30.3913 44.5662C26.6673 40.5579 24.6237 36.265 24.1441 31.4421C23.9789 29.7813 23.8565 28.0128 24.0783 26.3336C24.4129 23.7999 25.8499 21.6776 28.4713 19.8451C31.664 17.6131 35.2146 16.8923 39.0224 17.7025C41.03 18.1294 42.9805 18.5892 44.775 19.5135C49.4208 21.907 51.5453 26.0723 50.9181 31.5592C50.4856 35.3425 48.7544 38.6785 45.3043 42.376C44.3984 43.3475 43.3867 44.5392 42.7513 46.0135C42.4214 46.7791 42.1002 47.6827 42.3838 48.8011ZM42.4998 53.4922L42.3935 55.1439H32.7804V53.1993L42.4998 53.4922ZM42.2022 57.2559L42.1466 58.5249C39.2706 58.6534 35.9549 58.7618 32.6815 58.5105C32.675 58.4654 32.6684 58.4228 32.663 58.3826C32.6394 58.2641 32.6273 58.1437 32.627 58.0229C32.6399 57.7415 32.667 57.4586 32.6955 57.159C32.7022 57.09 32.7088 57.0198 32.7153 56.9488L42.2022 57.2559ZM32.6135 50.0267L32.8877 50.0347C36.1953 50.1325 39.3222 50.2248 42.5197 50.56L42.5662 51.3549C39.2911 51.5372 36.0084 51.5295 32.7343 51.3308L32.6135 50.0267ZM35.0886 41.511C34.9681 41.126 34.8469 40.741 34.7322 40.3549C34.1076 38.2626 33.507 36.21 33.0245 34.1011C32.5759 32.1422 32.8386 30.069 33.8484 27.5766C34.0712 27.0776 34.39 26.6279 34.7863 26.2533C34.8597 26.1649 34.9509 26.0931 35.0538 26.0426C35.1567 25.992 35.2689 25.9638 35.3833 25.9598C35.6001 25.9699 35.8248 26.1134 36.051 26.386C36.6345 27.0893 36.647 27.2671 36.1714 28.1143C35.2036 29.8384 34.8095 31.4946 34.9665 33.1774C35.0034 33.7067 35.1262 34.2262 35.3302 34.7156C35.4122 34.962 35.5598 35.1812 35.757 35.3491C35.9542 35.517 36.1935 35.6273 36.4486 35.6681C36.7038 35.7089 36.9652 35.6784 37.2043 35.58C37.4435 35.4817 37.6512 35.3192 37.805 35.1103C38.1497 34.7054 38.42 34.2419 38.603 33.7417C39.2959 31.9678 39.4295 30.0223 38.9855 28.1694C38.8456 27.5624 39.2722 27.0526 40.1568 26.7704C40.5159 26.6558 40.798 26.6556 40.9949 26.7692C41.0969 26.841 41.183 26.9335 41.2475 27.0406C41.3122 27.1477 41.3538 27.2672 41.3698 27.3915C41.5929 28.3797 41.8689 29.6096 41.7297 30.7143C41.4881 32.6248 41.0767 34.5504 40.6784 36.4125C40.604 36.7627 40.5298 37.1128 40.4555 37.4627C40.2168 38.5949 39.956 39.743 39.7037 40.8532C39.3652 42.3443 39.0159 43.8863 38.7129 45.4123C38.5849 46.1613 38.5135 46.9182 38.4993 47.6778C38.4856 47.9826 38.4716 48.2948 38.4508 48.6151L36.1849 48.4748C36.4932 45.9991 35.7798 43.7183 35.0891 41.511H35.0886ZM37.0089 31.8727L37.1402 31.0603C37.1397 31.3364 37.0955 31.6106 37.0095 31.8727H37.0089Z" fill="black"/>
</g>
</g>
<circle cx="37.5" cy="37.5" r="36" stroke="black" stroke-width="3"/>
<defs>
<clipPath id="clip0_73_7">
<rect width="33" height="46" fill="white" transform="translate(21 15)"/>
</clipPath>
</defs>
</svg>
