<svg width="75" height="75" viewBox="0 0 75 75" fill="none" xmlns="http://www.w3.org/2000/svg">
<g clip-path="url(#clip0_5_367)">
<mask id="mask0_5_367" style="mask-type:luminance" maskUnits="userSpaceOnUse" x="17" y="17" width="42" height="40">
<path d="M58.9422 17H17.2014V57H58.9422V17Z" fill="white"/>
</mask>
<g mask="url(#mask0_5_367)">
<path d="M56.2119 29.9066C55.5684 29.2043 54.8853 28.5376 54.1655 27.9099C53.919 27.6867 53.673 27.4637 53.43 27.2379C52.7614 26.6157 52.0899 25.9961 51.4158 25.379C50.3461 24.3956 49.2401 23.3789 48.1691 22.3623C46.8057 21.0688 44.9701 19.4072 42.8475 18.0278C41.4048 17.0895 39.8885 16.8609 38.3407 17.3447C37.5757 17.5835 36.7719 17.8549 36.0932 18.3053C34.0924 19.6329 32.3791 20.8483 30.8556 22.0207C29.0018 23.4473 27.1371 24.9219 25.3341 26.3479C23.9034 27.4793 22.4238 28.6493 20.9593 29.7882C19.4614 30.9528 18.5322 32.2457 18.1191 33.7405C17.8126 34.8052 17.6378 35.902 17.5985 37.0075C17.5725 38.139 17.6053 39.2887 17.6371 40.4003C17.6637 41.3371 17.6914 42.3058 17.6835 43.2567C17.6815 43.5129 17.6805 43.7694 17.6803 44.0266C17.6771 45.4367 17.6739 46.8952 17.4082 48.2716C16.9033 50.8846 17.9299 53.0608 20.4581 54.7408C22.2996 55.9638 24.4508 56.2114 26.5309 56.4509C29.4285 56.7772 32.3433 56.9357 35.2601 56.9256C36.7645 56.9256 38.3328 56.8891 39.9859 56.817L42.8472 56.7089C45.254 56.6177 47.8083 56.5213 50.3617 56.4233C51.9325 56.3775 53.4884 56.1096 54.9812 55.6289C56.432 55.1524 57.489 54.2395 58.035 52.9891C58.5662 51.7747 58.84 50.7241 58.8714 49.7765C59.0243 44.8732 58.853 39.9652 58.3583 35.0834C58.154 33.0315 57.432 31.2902 56.2119 29.9066ZM32.3857 53.4716C32.4205 53.1094 32.453 52.7671 32.4621 52.4256C32.5009 50.88 32.5369 49.3342 32.57 47.7884C32.6028 46.323 32.6368 44.858 32.672 43.3932C32.6964 42.4096 32.7329 41.6584 32.7908 40.957C32.8785 39.8895 33.2577 39.459 34.2932 39.2482C35.4335 38.9965 36.5931 38.8373 37.7603 38.7725C38.694 38.7395 39.6511 38.7782 40.576 38.8166C41.1472 38.84 41.7373 38.8645 42.3197 38.8715C42.846 38.8781 43.1061 39.102 43.1885 39.6223C43.2559 40.0475 43.3365 40.4783 43.4146 40.8949C43.6233 41.8699 43.7568 42.859 43.8131 43.8537C43.8805 46.1408 43.8675 48.3891 43.8538 50.7696C43.8486 51.6805 43.845 52.6 43.8429 53.5281C40.0091 53.7982 36.2457 53.9 32.3512 53.8428C32.3623 53.7149 32.3743 53.5924 32.3857 53.4716ZM46.7733 44.2225C46.632 42.5747 46.2561 40.9242 45.8923 39.328L45.7775 38.8218C45.4446 37.3504 44.4402 36.4752 42.8732 36.2908C39.0664 35.8429 36.1631 35.917 33.4592 36.5319C31.1138 37.0654 29.8853 38.4396 29.7039 40.7328C29.5921 42.1454 29.6051 43.5878 29.6177 44.9825C29.6212 45.3701 29.6246 45.7575 29.6256 46.1443C29.6293 47.6043 29.6477 49.0878 29.6653 50.5228C29.6758 51.3719 29.6853 52.2213 29.6939 53.0704C29.6953 53.2248 29.6808 53.3846 29.6638 53.5696C29.6593 53.619 29.6546 53.6714 29.6498 53.7256C27.7277 53.6385 26.1105 53.5023 24.5174 53.1446C23.7506 52.9727 22.8703 52.756 22.1274 52.3613C20.7769 51.6441 20.1462 50.6575 20.1993 49.3451C20.2432 48.2597 20.2558 47.0975 20.2378 45.7919C20.2041 43.3334 20.1536 40.834 20.105 38.4174L20.082 37.2666C20.0537 35.8725 20.3324 34.7079 20.9338 33.7068C21.2424 33.1926 21.5812 32.6592 22.0268 32.2814C24.3028 30.3517 26.376 28.6475 28.3645 27.0706C30.5247 25.3586 33.045 23.3741 35.6208 21.5002C36.5268 20.8409 37.5564 20.3405 38.8249 19.7917C39.1743 19.6352 39.5537 19.5528 39.9381 19.5496C40.5541 19.5496 41.1708 19.7736 41.8013 20.2233C43.5745 21.4888 45.1545 23.0134 46.6823 24.4876C47.088 24.8792 47.4938 25.271 47.9039 25.6587C48.2887 26.0227 48.6731 26.3872 49.0568 26.7522C50.385 28.0131 51.7581 29.3171 53.1407 30.5667C54.4497 31.7158 55.2788 33.297 55.4691 35.0072C55.6949 36.9362 55.8883 38.678 55.969 40.4569C56.081 42.92 56.1414 45.6241 56.1543 48.7235C56.1395 49.58 56.0213 50.4316 55.8022 51.2608C55.7263 51.6486 55.5295 52.0038 55.2386 52.2775C54.9477 52.5514 54.5772 52.7301 54.1782 52.7896C53.939 52.8349 53.6997 52.8843 53.4606 52.9337C52.8387 53.076 52.2081 53.179 51.5727 53.2428C50.5173 53.3251 49.4623 53.358 48.3452 53.3937C47.9187 53.4073 47.485 53.421 47.0414 53.4377C47.0328 53.2165 47.0237 53.0023 47.0149 52.7934C46.9926 52.2532 46.9711 51.7433 46.9597 51.2362C46.9428 50.5066 46.9379 49.763 46.9333 49.0441C46.9216 47.4613 46.911 45.8248 46.7733 44.2225Z" fill="black"/>
</g>
</g>
<circle cx="37.5" cy="37.5" r="36" stroke="black" stroke-width="3"/>
<defs>
<clipPath id="clip0_5_367">
<rect width="42" height="40" fill="white" transform="translate(17 17)"/>
</clipPath>
</defs>
</svg>
