<svg width="75" height="75" viewBox="0 0 75 75" fill="none" xmlns="http://www.w3.org/2000/svg">
<circle cx="37.5" cy="37.5" r="36" stroke="black" stroke-width="3"/>
<g clip-path="url(#clip0_5_368)">
<mask id="mask0_5_368" style="mask-type:luminance" maskUnits="userSpaceOnUse" x="13" y="17" width="49" height="40">
<path d="M61.9392 17H13.2129V57H61.9392V17Z" fill="white"/>
</mask>
<g mask="url(#mask0_5_368)">
<path d="M54.2322 44.4532C53.749 44.3444 53.1041 44.4042 52.7767 45.3007C52.3108 46.5746 51.469 47.6056 50.7072 48.4461C48.5378 50.8397 45.7073 52.5213 42.2959 53.444C39.7183 54.1409 36.6533 54.7619 33.4632 54.08C28.7056 53.0628 24.8335 50.525 21.9548 46.5362C20.6758 44.7637 19.9417 43.0705 19.7105 41.3578C19.2998 38.4417 19.4374 35.4778 20.1165 32.6093C20.2869 31.9042 20.5149 31.1955 20.7585 30.4389C20.7949 30.3264 20.8317 30.2123 20.8686 30.0967C21.0312 30.3934 21.171 30.6423 21.3282 30.8918L21.3683 30.9548C21.6692 31.456 22.0047 31.9369 22.3726 32.3941C22.8871 33.0052 23.6258 33.1897 24.2114 32.8535C24.6737 32.5876 25.0361 31.9531 24.5316 31.0398C23.9608 30.0072 23.1966 28.6536 22.3478 27.3389C21.7177 26.3627 20.9297 26.0984 19.793 26.4827C17.8759 27.131 16.0376 27.8275 14.492 28.4227C14.0535 28.5902 13.6761 28.8803 13.408 29.2562C13.1806 29.601 13.226 30.17 13.3983 30.4976C13.6305 30.941 14.1325 31.0641 14.7414 30.827C15.9356 30.3615 17.1489 29.9231 18.39 29.4779C18.5742 29.4117 18.7717 29.3572 18.9698 29.3055C17.8911 31.7255 17.2949 34.4548 17.1495 37.6345C16.9766 41.4069 17.5671 44.2042 19.0634 46.7044C21.6507 51.0265 25.4961 54.1425 30.493 55.9658C31.9829 56.5057 33.5494 56.8209 35.1379 56.9015C35.5419 56.9232 35.9529 56.934 36.3594 56.934C38.7048 56.9221 41.0361 56.5804 43.2803 55.9197C47.0886 54.8334 50.1228 53.0638 52.5561 50.507C53.7419 49.2615 54.4944 48.0832 54.9237 46.7984C55.0488 46.4625 55.1235 46.111 55.1462 45.7547C55.1698 44.8524 54.6625 44.5489 54.2322 44.4532Z" fill="black"/>
<path d="M61.6696 35.4539C61.4177 35.1332 60.9808 34.9953 60.4708 35.0755C59.9149 35.1617 59.3907 35.5096 59.0482 35.7858C58.472 36.2513 57.9209 36.7527 57.3376 37.2829L57.3179 37.3003C57.2757 37.3388 57.233 37.377 57.1903 37.416C57.4148 35.5591 57.3959 33.6822 57.1347 31.8299C56.6108 28.0196 54.7592 24.4972 51.8874 21.8471C49.0202 19.2131 45.3099 17.6021 41.1569 17.1878C36.8831 16.7622 32.599 17.4528 28.424 19.2424C27.108 19.8069 25.589 20.5438 24.31 21.73C23.9643 22.0724 23.6899 22.4764 23.5022 22.9197C23.3654 23.2206 23.5426 23.8335 23.8834 23.9849C24.0561 24.0444 24.2401 24.0664 24.4226 24.0496C24.605 24.0328 24.7815 23.9776 24.9396 23.8877C25.1424 23.7669 25.3319 23.6266 25.5056 23.4688C25.6256 23.3613 25.7533 23.2621 25.8876 23.1719C31.1514 19.8403 36.7674 18.7097 42.5787 19.8098C46.1377 20.4845 49.0424 22.1506 51.2112 24.7614C53.713 27.7724 54.8714 31.3535 54.6552 35.4049C54.6015 36.1486 54.5079 36.8891 54.3749 37.6232C54.3475 37.7922 54.3204 37.9612 54.2936 38.1303C54.0754 37.8944 53.8512 37.6508 53.6396 37.4025C53.1822 36.8646 52.7269 36.3244 52.2742 35.7819L52.2468 35.7491C51.9235 35.3631 51.5999 34.977 51.2695 34.5858C51.1272 34.406 50.9668 34.2402 50.7905 34.0912C50.3207 33.7164 49.7754 33.6895 49.3322 34.0191C49.1247 34.1662 48.9805 34.3824 48.9274 34.6262C48.8743 34.87 48.9159 35.1241 49.044 35.34C49.2189 35.6732 49.4242 35.9906 49.6574 36.2882C50.9813 37.9388 52.281 39.5369 53.3782 40.8824C53.8405 41.4493 54.2755 41.7022 54.7888 41.7022C55.1463 41.6872 55.4956 41.5922 55.8087 41.4244C57.7761 40.4567 59.5593 39.1715 61.0818 37.6241C61.3466 37.3644 61.5639 37.0631 61.7246 36.7331C61.9512 36.2529 61.931 35.7858 61.6696 35.4539Z" fill="black"/>
</g>
</g>
<defs>
<clipPath id="clip0_5_368">
<rect width="49" height="40" fill="white" transform="translate(13 17)"/>
</clipPath>
</defs>
</svg>
